<svg width="148" height="29" viewBox="0 0 148 29" fill="none" xmlns="http://www.w3.org/2000/svg">
<path d="M0 1.08123H3.89991V19.3578H13.6497V22.6538H0V1.08123Z" fill="#05171F"/>
<path d="M16.1648 7.14847H19.8832V22.6483H16.1648V7.14847ZM18.0266 0C19.4061 0 20.4589 1.08101 20.4589 2.46407C20.4589 3.84714 19.4113 4.95994 18.0266 4.95994C16.6419 4.95994 15.6255 3.88423 15.6255 2.46407C15.6255 1.04392 16.6782 0 18.0266 0Z" fill="#05171F"/>
<path d="M22.9428 7.15419H26.6612L26.5679 10.4502C27.2265 8.16632 28.9068 6.78325 31.339 6.78325C34.6114 6.78325 36.7948 9.27913 36.7948 13.0998V22.654H33.0764V13.688C33.0764 11.2822 31.9665 9.86732 29.9855 9.86732C27.854 9.86732 26.656 11.4994 26.656 14.3662V22.6593H22.9376V7.15948L22.9428 7.15419Z" fill="#05171F"/>
<path d="M47.4783 19.3573C49.9987 19.3573 51.9176 17.2959 51.9176 14.6411C51.9176 11.9862 50.0558 9.92486 47.4783 9.92486C44.9008 9.92486 43.0079 11.9279 43.0079 14.6411C43.0079 17.3542 44.9268 19.3573 47.4783 19.3573ZM40.2489 23.8244L43.9103 23.5753C44.3304 25.0538 46.0106 25.9811 47.7791 25.9811C49.9106 25.9811 51.7412 24.5981 51.7412 21.9432V19.7547C50.9011 21.3232 49.1327 22.5897 46.7626 22.5897C42.5619 22.5897 39.2636 19.1718 39.2636 14.6358C39.2636 10.0997 42.5049 6.68182 46.7626 6.68182C49.0704 6.68182 51.0204 7.85293 51.9227 9.63872V7.14284H55.4648V21.3179C55.4648 26.7442 51.5649 28.9645 47.6961 28.9645C43.8273 28.9645 40.7364 26.8978 40.2541 23.8191" fill="#05171F"/>
<path d="M57.4616 7.15398H61.3615L65.3807 18.494L69.431 7.15398H73.1805L67.2114 22.6538H63.4307L57.4616 7.15398Z" fill="#05171F"/>
<path d="M81.5767 19.8817C84.0038 19.8817 85.6841 17.8151 85.6841 14.89C85.6841 11.9649 84.0038 9.93004 81.5767 9.93004C79.1496 9.93004 77.4382 11.9967 77.4382 14.89C77.4382 17.7833 79.1185 19.8817 81.5767 19.8817ZM73.6835 14.8847C73.6835 10.1049 76.9818 6.687 81.5715 6.687C86.1612 6.687 89.4336 10.1102 89.4336 14.8847C89.4336 19.6592 86.1301 23.1142 81.5715 23.1142C77.013 23.1142 73.6835 19.691 73.6835 14.8847Z" fill="#05171F"/>
<path d="M94.049 0C95.4285 0 96.4761 1.08101 96.4761 2.46407C96.4761 3.84714 95.4285 4.95994 94.049 4.95994C92.6695 4.95994 91.6478 3.87893 91.6478 2.46407C91.6478 1.04922 92.6954 0 94.049 0ZM90.5951 23.1782L94.7336 6.75103L98.3327 7.4929L94.1631 23.9519C92.934 29.7173 87.9242 29.5901 85.4038 28.207L86.3062 25.2184C88.4377 26.3895 89.9364 25.5893 90.5951 23.1835" fill="#05171F"/>
<path d="M107.066 19.9406C108.954 19.9406 110.095 18.584 110.308 16.21V7.1486H114.026V22.6484H110.308L110.37 20.2744C109.53 22.0019 107.937 23.0194 105.78 23.0194C102.57 23.0194 100.412 20.5871 100.412 16.8883V7.1486H104.131V16.1147C104.131 18.5204 105.21 19.9353 107.071 19.9353" fill="#05171F"/>
<path d="M117.075 7.15419H120.794L120.7 10.4502C121.359 8.16632 123.039 6.78325 125.471 6.78325C127.904 6.78325 129.703 8.13982 130.481 10.4184C131.171 8.13982 132.908 6.78325 135.403 6.78325C138.613 6.78325 140.77 9.21553 140.77 12.9143V22.654H137.052V13.688C137.052 11.2822 135.973 9.86732 134.111 9.86732C132.073 9.86732 130.901 11.4994 130.901 14.3662V22.6593H127.183V13.6933C127.183 11.2875 126.073 9.87263 124.123 9.87263C121.992 9.87263 120.794 11.5047 120.794 14.3715V22.6646H117.075V7.15419Z" fill="#05171F"/>
<path d="M143.706 7.14847H147.424V22.6483H143.706V7.14847ZM145.568 0C146.947 0 148 1.08101 148 2.46407C148 3.84714 146.952 4.95994 145.568 4.95994C144.183 4.95994 143.167 3.88423 143.167 2.46407C143.167 1.04392 144.219 0 145.568 0Z" fill="#05171F"/>
</svg>
