<svg width="58" height="59" viewBox="0 0 58 59" fill="none" xmlns="http://www.w3.org/2000/svg">
<path d="M39.0683 36.6056L37.901 35.6636L39.0683 36.6056ZM5.68186 55.5341C4.87228 55.7098 4.35842 56.5086 4.53413 57.3181C4.70983 58.1277 5.50856 58.6416 6.31814 58.4659L5.68186 55.5341ZM50.5 0C50.5 12.9756 46.0541 25.5607 37.901 35.6636L40.2356 37.5476C48.8191 26.9115 53.5 13.6616 53.5 0H50.5ZM37.901 35.6636C29.7478 45.7664 18.3782 52.7786 5.68186 55.5341L6.31814 58.4659C19.6831 55.5652 31.6521 48.1837 40.2356 37.5476L37.901 35.6636Z" fill="#05171F"/>
<path d="M45 47C33.9057 38.6423 26.1111 26.5961 23 13" stroke="#05171F" stroke-width="3" stroke-linecap="round"/>
<line x1="50.5" y1="1.5" x2="7.5" y2="1.5" stroke="#05171F" stroke-width="3" stroke-linecap="round"/>
</svg>
